<svg width="252" height="24" viewBox="0 0 252 24" fill="none" xmlns="http://www.w3.org/2000/svg">
<path d="M179 12.0231L179 10.5231L179 10.5231L179 12.0231ZM251.06 13.1073C251.646 12.5217 251.646 11.572 251.061 10.986L241.518 1.43694C240.932 0.850965 239.982 0.850654 239.396 1.43625C238.81 2.02184 238.81 2.97159 239.396 3.55757L247.878 12.0456L239.39 20.5281C238.804 21.1137 238.804 22.0635 239.39 22.6495C239.975 23.2354 240.925 23.2357 241.511 22.6501L251.06 13.1073ZM0.000168504 13.5464L179 13.5231L179 10.5231L-0.000221986 10.5464L0.000168504 13.5464ZM178.999 13.5231L249.999 13.5463L250 10.5463L179 10.5231L178.999 13.5231Z" fill="#FCFCFC"/>
</svg>
