<svg width="204" height="31" viewBox="0 0 204 31" fill="none" xmlns="http://www.w3.org/2000/svg">
<path d="M16.32 2.48L15 5.92C13.6933 5.22667 12.2667 4.88 10.72 4.88C9.17333 4.88 7.92 5.16 6.96 5.72C6.02667 6.28 5.56 7.16 5.56 8.36C5.56 9.82667 6.78667 11.4933 9.24 13.36C10.2533 14.1333 11.2667 14.9333 12.28 15.76C13.2933 16.56 14.16 17.4933 14.88 18.56C15.6 19.6 15.96 20.5867 15.96 21.52C15.96 22.4533 15.8 23.3067 15.48 24.08C15.1867 24.8267 14.68 25.6 13.96 26.4C13.24 27.2 12.12 27.8533 10.6 28.36C9.08 28.8667 7.37333 29.12 5.48 29.12C3.58667 29.12 1.90667 28.8933 0.44 28.44C0.146667 27.9867 0 27.5867 0 27.24C0 26.8933 0.0133333 26.72 0.04 26.72C0.0933333 26.72 0.293333 26.7733 0.64 26.88C1.73333 27.1733 2.82667 27.32 3.92 27.32C6.16 27.32 7.97333 26.8667 9.36 25.96C10.7733 25.0533 11.48 23.8933 11.48 22.48C11.48 20.88 10.3333 19.16 8.04 17.32C7.08 16.5467 6.12 15.7733 5.16 15C2.86667 13.16 1.72 11.36 1.72 9.6C1.72 8.48 2.18667 7.38667 3.12 6.32C5.17333 3.94666 9.34667 2.32 15.64 1.44L16.32 2.48ZM20.4191 19.6C19.9657 19.1733 19.7391 18.64 19.7391 18C19.7391 17.7867 19.7791 17.68 19.8591 17.68C20.4191 17.7867 21.2457 17.84 22.3391 17.84H23.0991C22.9924 10.4 21.9257 5.49333 19.8991 3.12L21.7791 0.44C23.7791 1.8 26.6324 3.29333 30.3391 4.92C31.4857 5.42667 32.6057 6 33.6991 6.64C35.8591 7.89333 36.9391 9.52 36.9391 11.52C36.9391 13.52 36.0457 15.28 34.2591 16.8C32.4991 18.32 29.5791 19.24 25.4991 19.56C25.3391 21.3733 24.9924 24.44 24.4591 28.76C24.0591 29.16 23.6324 29.36 23.1791 29.36C22.7524 29.36 22.5391 29.32 22.5391 29.24C22.8857 25.5867 23.0724 22.3867 23.0991 19.64H22.8991C21.7791 19.64 20.9524 19.6267 20.4191 19.6ZM25.0991 4.92C25.5524 7.45333 25.7791 9.88 25.7791 12.2C25.7791 14.52 25.7257 16.3333 25.6191 17.64C28.0191 17.2667 29.8324 16.56 31.0591 15.52C32.2857 14.4533 32.8991 13.24 32.8991 11.88C32.8991 10.6533 32.5257 9.66667 31.7791 8.92C31.3791 8.49333 31.0057 8.13333 30.6591 7.84C30.3391 7.54667 29.7924 7.2 29.0191 6.8C27.8191 6.18667 26.5124 5.56 25.0991 4.92ZM54.6778 0.959998L55.3578 1.96L54.1978 4.28C55.5311 5.42667 56.6245 7.06667 57.4778 9.2C58.3578 11.3333 58.7978 13.4133 58.7978 15.44C58.7978 17.4667 58.5845 19.2533 58.1578 20.8C57.7578 22.32 57.1445 23.7467 56.3178 25.08C55.4911 26.3867 54.3311 27.4267 52.8378 28.2C51.3711 28.9733 49.6645 29.36 47.7178 29.36C44.9445 29.36 42.6245 28.3067 40.7578 26.2C38.8911 24.0933 37.9578 21.1867 37.9578 17.48C37.9578 13.7467 39.1311 10.3467 41.4778 7.28C42.7045 5.65333 44.4511 4.28 46.7178 3.16C48.9845 2.01333 51.6378 1.28 54.6778 0.959998ZM48.7178 26.04C51.1445 25.96 52.9978 25.0533 54.2778 23.32C55.5845 21.5867 56.2378 19.56 56.2378 17.24C56.2378 14.8933 55.8511 12.56 55.0778 10.24C54.3045 7.92 53.2245 6.06667 51.8378 4.68C48.4511 5.16 45.9311 6.42667 44.2778 8.48C42.6245 10.5067 41.7978 13.0667 41.7978 16.16C41.7978 19.2267 42.4645 21.64 43.7978 23.4C45.1578 25.16 46.7978 26.04 48.7178 26.04ZM77.92 0.959998L78.6 1.96L77.44 4.28C78.7733 5.42667 79.8667 7.06667 80.72 9.2C81.6 11.3333 82.04 13.4133 82.04 15.44C82.04 17.4667 81.8267 19.2533 81.4 20.8C81 22.32 80.3867 23.7467 79.56 25.08C78.7333 26.3867 77.5733 27.4267 76.08 28.2C74.6133 28.9733 72.9067 29.36 70.96 29.36C68.1867 29.36 65.8667 28.3067 64 26.2C62.1333 24.0933 61.2 21.1867 61.2 17.48C61.2 13.7467 62.3733 10.3467 64.72 7.28C65.9467 5.65333 67.6933 4.28 69.96 3.16C72.2267 2.01333 74.88 1.28 77.92 0.959998ZM71.96 26.04C74.3867 25.96 76.24 25.0533 77.52 23.32C78.8267 21.5867 79.48 19.56 79.48 17.24C79.48 14.8933 79.0933 12.56 78.32 10.24C77.5467 7.92 76.4667 6.06667 75.08 4.68C71.6933 5.16 69.1733 6.42667 67.52 8.48C65.8667 10.5067 65.04 13.0667 65.04 16.16C65.04 19.2267 65.7067 21.64 67.04 23.4C68.4 25.16 70.04 26.04 71.96 26.04ZM88.8022 28.48C88.6422 28.64 88.3489 28.7867 87.9222 28.92C87.5222 29.0533 87.2022 29.12 86.9622 29.12C86.7489 29.12 86.6422 29.0667 86.6422 28.96C87.1489 25.52 87.4022 22.0667 87.4022 18.6C87.4022 12.2 87.0155 6.54667 86.2422 1.64L87.2822 0.919998L90.8822 2.76C90.6955 7.74667 90.4689 12.04 90.2022 15.64C93.4022 9.82667 96.0822 5.37333 98.2422 2.28L101.722 1.48L102.882 2.4C99.1755 6.98667 96.3355 10.6 94.3622 13.24C95.0289 15.2933 96.2155 17.9733 97.9222 21.28C99.6289 24.56 101.136 27.0533 102.442 28.76V28.8C102.442 29.0933 102.002 29.24 101.122 29.24C100.909 29.24 100.749 29.2267 100.642 29.2C98.5355 27.1733 95.6555 22.92 92.0022 16.44C90.9889 17.88 90.2955 18.88 89.9222 19.44C89.5489 23.6267 89.1755 26.64 88.8022 28.48ZM108.571 0.919998L109.611 1.56C109.611 6.46667 110.291 11.12 111.651 15.52C112.104 14.5067 113.344 12.3467 115.371 9.04C117.397 5.73333 119.131 3.18667 120.571 1.4C120.891 1.02667 121.464 0.839999 122.291 0.839999C122.451 0.839999 122.531 0.906666 122.531 1.04C122.531 1.14667 121.931 2.17333 120.731 4.12C119.557 6.04 118.224 8.46667 116.731 11.4C115.237 14.3333 114.197 16.96 113.611 19.28C113.451 20.8267 113.371 22.3467 113.371 23.84C113.371 26.2133 113.411 27.8667 113.491 28.8L113.531 29.24C113.531 29.32 113.411 29.36 113.171 29.36C112.957 29.36 112.637 29.2933 112.211 29.16C111.811 29.0533 111.544 28.92 111.411 28.76C110.851 25.7733 110.544 22.64 110.491 19.36C109.264 16.7467 108.117 13.8267 107.051 10.6C105.984 7.34667 105.331 4.66667 105.091 2.56L108.571 0.919998ZM138.998 7.52C139.078 8.72 139.118 10.5867 139.118 13.12C139.118 15.6533 138.971 18.12 138.678 20.52C138.411 22.8933 138.118 24.4267 137.798 25.12C137.451 25.52 137.104 25.72 136.758 25.72C136.411 25.72 136.238 25.68 136.238 25.6C136.611 22.6133 136.798 20.28 136.798 18.6C136.798 10.84 135.611 5.77333 133.238 3.4L134.918 0.719998C137.104 2.85333 139.798 4.93333 142.998 6.96C145.931 8.8 148.291 10.5733 150.078 12.28C150.984 13.1333 151.718 14.1333 152.278 15.28C152.838 16.4267 153.118 17.6933 153.118 19.08C153.118 20.44 152.811 21.72 152.198 22.92C151.584 24.12 150.811 25.0933 149.878 25.84C148.971 26.5867 147.944 27.2133 146.798 27.72C143.171 29.2933 138.824 29.5333 133.758 28.44C133.358 27.9867 133.158 27.5867 133.158 27.24C133.158 26.8933 133.198 26.72 133.278 26.72C133.358 26.72 133.598 26.7733 133.998 26.88C135.304 27.1733 136.664 27.32 138.078 27.32C141.198 27.32 143.758 26.4933 145.758 24.84C147.758 23.16 148.758 21.1867 148.758 18.92C148.758 14.7333 145.504 10.9333 138.998 7.52ZM180.598 29.24C180.598 29.32 180.492 29.36 180.278 29.36C179.585 29.36 179.065 29.16 178.718 28.76C177.332 21.7467 176.638 15.7333 176.638 10.72C176.638 9.41333 176.678 8.12 176.758 6.84C173.692 13.96 171.572 20.6667 170.398 26.96L170.878 28.76L169.998 29.4L166.198 27.76C165.505 21.3867 163.945 14.3333 161.518 6.6C161.278 10.4667 160.905 14.56 160.398 18.88C159.892 23.1733 159.372 26.3333 158.838 28.36C158.625 28.5733 158.305 28.7467 157.878 28.88C157.452 29.04 157.105 29.12 156.838 29.12C156.572 29.12 156.438 29.0667 156.438 28.96L156.718 27.64C156.905 26.76 157.105 25.24 157.318 23.08C157.532 20.92 157.638 18.68 157.638 16.36C157.638 11.9067 157.358 7.89333 156.798 4.32L156.518 2.56L160.638 0.919998L161.678 1.56C164.132 7.10667 166.452 13.4933 168.638 20.72C170.452 15.84 173.358 9.49333 177.358 1.68C177.385 1.62667 177.398 1.58667 177.398 1.56L178.438 0.919998L181.838 2.56C180.612 5.70667 179.998 10.5467 179.998 17.08C179.998 21.9333 180.198 25.9867 180.598 29.24ZM191.148 15.2C191.095 17.3867 190.935 19.44 190.668 21.36C190.428 23.28 190.161 24.5333 189.868 25.12C189.548 25.52 189.201 25.72 188.828 25.72C188.481 25.72 188.308 25.68 188.308 25.6C188.681 23.12 188.868 20.7867 188.868 18.6C188.868 10.8133 187.695 5.74667 185.348 3.4L186.988 0.719998C188.588 2.08 190.935 3.04 194.028 3.6C195.201 3.81333 196.335 4.05333 197.428 4.32C199.775 4.85333 200.948 5.90667 200.948 7.48C200.948 8.17333 200.588 8.89333 199.868 9.64C199.175 10.3867 198.361 11.04 197.428 11.6C195.748 12.6133 194.508 13.2667 193.708 13.56C197.015 13.8 199.521 14.6533 201.228 16.12C202.935 17.5867 203.788 19.3467 203.788 21.4C203.788 23.4533 202.801 25.2533 200.828 26.8C198.881 28.3467 196.068 29.12 192.388 29.12C189.961 29.12 187.708 28.8933 185.628 28.44C185.228 28.04 185.028 27.6533 185.028 27.28C185.028 26.9067 185.068 26.72 185.148 26.72C185.228 26.72 185.468 26.7733 185.868 26.88C187.175 27.1733 188.521 27.32 189.908 27.32C192.681 27.32 194.935 26.7467 196.668 25.6C198.428 24.4267 199.308 22.8533 199.308 20.88C199.308 19.7333 198.841 18.72 197.908 17.84C196.228 16.2667 193.975 15.3867 191.148 15.2ZM190.548 5.36C190.975 6.45333 191.188 8.76 191.188 12.28C192.655 11.6933 193.895 10.9733 194.908 10.12C195.921 9.24 196.428 8.56 196.428 8.08C196.428 7.6 196.068 7.21333 195.348 6.92C194.655 6.6 193.775 6.32 192.708 6.08C191.641 5.81333 190.921 5.57333 190.548 5.36Z" fill="white"/>
</svg>
